<svg xmlns="http://www.w3.org/2000/svg" viewBox="0 0 360 80" fill="none" width="720" height="160" role="img" aria-label="Unwrap">
  <title>Unwrap</title>
  <!-- Mark on left -->
  <g transform="translate(8 6) scale(0.68)">
    <path d="M62 18 Q48 18 48 32 Q48 45 36 50 Q48 55 48 68 Q48 82 62 82"
          stroke="#10B981" stroke-width="6.5"
          stroke-linecap="round" stroke-linejoin="round" opacity="0.22"/>
    <path d="M56 18 Q42 18 42 32 Q42 45 30 50 Q42 55 42 68 Q42 82 56 82"
          stroke="#10B981" stroke-width="6.5"
          stroke-linecap="round" stroke-linejoin="round" opacity="0.5"/>
    <path d="M50 18 Q36 18 36 32 Q36 45 24 50 Q36 55 36 68 Q36 82 50 82"
          stroke="#10B981" stroke-width="6.5"
          stroke-linecap="round" stroke-linejoin="round"/>
    <path d="M62 38 L72 50 L62 62"
          stroke="#10B981" stroke-width="6.5"
          stroke-linecap="round" stroke-linejoin="round" opacity="0.85"/>
  </g>
  <!-- Wordmark — Satoshi 900, tracking-tight. Fallback chain. -->
  <text x="86" y="56"
        font-family="Satoshi, 'Satoshi Variable', system-ui, sans-serif"
        font-weight="900"
        font-size="48"
        letter-spacing="-1.4"
        fill="#F4F4F5">Unwrap</text>
</svg>
